<svg id="Camada_1" data-name="Camada 1" xmlns="http://www.w3.org/2000/svg" viewBox="0 0 835.19 583.38"><defs><style>.cls-1{fill:none;stroke:blue;stroke-miterlimit:10;stroke-width:7px;}.cls-2{fill:blue;}</style></defs><title>logo-triangulo</title><path d="M626.49,513.06q0,5.92,2.57,9.11a8.77,8.77,0,0,0,7.24,3.19h15v30.22H632.56q-18.07,0-28-11.21t-9.89-31.62V328.33h31.78Z" transform="translate(-514.65 -110.83)"/><path d="M718.85,513.06q0,5.92,2.57,9.11a8.77,8.77,0,0,0,7.24,3.19h15v30.22H724.93q-18.07,0-28-11.21t-9.89-31.62V328.33h31.78Z" transform="translate(-514.65 -110.83)"/><path d="M514.65,328.33h31.78V360.1H514.65Zm0,64.8h31.78V554.81H514.65Z" transform="translate(-514.65 -110.83)"/><path d="M809.66,491.41q0,17,8.64,26.25t24.38,9.27q15.57,0,24.14-8.26t8.57-23.52l2.18,33.8A46.55,46.55,0,0,1,861.38,549q-11.21,8.1-27.57,8.1-26.79,0-41.35-17.21t-14.56-48.52V393.13h31.78Zm65.73-98.29H907V554.81H875.4Z" transform="translate(-514.65 -110.83)"/><path d="M1206.7,393.13h32.4l49.69,140.5L1271.19,568Zm143.14,0L1281,592.66q-3.74,11.06-9.81,17.52a34.3,34.3,0,0,1-15,9.27q-8.88,2.8-21.81,2.8H1228V591.72h6.39q8.88,0,14.1-3.58t9.11-12.31l59.81-182.71Z" transform="translate(-514.65 -110.83)"/><polygon class="cls-1" points="369.77 570.45 55.13 570.45 212.45 290.21 369.77 9.98 527.09 290.21 684.4 570.45 369.77 570.45"/><path d="M955.3,393.13h31.78V554.81H955.3Zm96.57,63.71q0-17.13-8.41-26.48T1019.63,421q-15.58,0-24.06,8.26t-8.49,23.21l-3.27-31.15q7.48-14.64,19.55-22.59a47.56,47.56,0,0,1,26.71-7.94q17,0,29,7.71t18.3,22.51q6.31,14.8,6.31,35.67v98.13h-31.78Zm96.57,0q0-17.13-8.88-26.48T1114.65,421q-14.8,0-22.9,9t-8.1,25.54l-6.39-31.15q7.63-16,20.17-24.84a47.08,47.08,0,0,1,27.65-8.8q17.44,0,29.83,7.71T1173.76,421q6.46,14.8,6.46,35.67v98.13h-31.78Z" transform="translate(-514.65 -110.83)"/><path class="cls-2" d="M1208.53,691.22a4.78,4.78,0,0,1-.78-1.24l-.07-.08a3.17,3.17,0,0,1-.34-.66,5,5,0,0,1-.86-1.79,5.18,5.18,0,0,1-.86-2.15,4.81,4.81,0,0,1-.83-1.25,4.76,4.76,0,0,1-.38-.61,4.63,4.63,0,0,1-1.22-1.61,5.12,5.12,0,0,1-.9-2.08,4.64,4.64,0,0,1-.91-1.42h0a5.1,5.1,0,0,1-.63-1.4h-16.4l.17.31H584.31L780.37,327.95a4.9,4.9,0,0,1,1.56-2.78L884.42,142.6l.15.26c3.26-4.13,5.21-9.57,8.6-13.58a4.59,4.59,0,0,1-.26-.52,5,5,0,0,1-.3-.61,5.06,5.06,0,0,1-1.38-3c0-.1-.07-.2-.09-.31a4.49,4.49,0,0,1-1.26-1.45,5,5,0,0,1-1-2.09,5.27,5.27,0,0,1-.6-1.9,5.23,5.23,0,0,1-.32-.82,4.53,4.53,0,0,1-.56-.44l0,0a4.58,4.58,0,0,1-.62-.8v0a5.3,5.3,0,0,1-.7-2,4.59,4.59,0,0,1-.91-1.18,4.88,4.88,0,0,1-1.49-2.61,4.33,4.33,0,0,1-.81-.68L555.27,694.21H1210a5,5,0,0,1-.57-1.21A4.94,4.94,0,0,1,1208.53,691.22Z" transform="translate(-514.65 -110.83)"/></svg>